:SAMPLES-PER-SECOND 30
:FULLY-SPECIFIED
:DEGREES
611
root  48.0055 34.7495 42.0345 5.84744 60.5512 -0.628876
RightUpLeg  -9.23065 -7.89892 -4.25142
RightLeg  9.06131 2.17876 0.206164
RightFoot  6.20044 -0.0109783 0.369488
RightToes  -30.4511 -0.143013 -0.251063
Spine  -1.39038 -0.469867 0.754605
Spine1  -2.81233 -0.936034 2.08102
HEad  -57.3194 1.33635 2.90131
LeftShoulder1  -1.94126e-019 -3.10601e-018 -2.51263e-017
LeftArm  -27.768 29.2575 -77.5063
LeftForeArm  29.9384 -11.6181 -1.98549
LeftHand  -0.462236 -0.693951 8.93967
RightShoulder  -4.96962e-017 0 -2.36833e-017
RightArm  -37.2713 -27.4155 72.1317
RightForeArm  52.3826 14.7565 1.22553
RightHand  -0.419841 -0.78154 -10.5459
LeftUpLeg  -9.16331 -3.9891 4.338
LeftLeg  11.8074 13.019 1.84059
LeftFoot  5.27013 -0.0397114 1.30392
LeftToes  -25.4906 1.31378e-006 1.14341e-007
612
root  48.0835 34.778 42.1553 6.01413 60.8147 -0.816299
RightUpLeg  -8.92301 -8.01687 -4.01557
RightLeg  8.29808 1.99099 0.161806
RightFoot  6.34771 -0.00825264 0.342544
RightToes  -29.9037 -0.142944 -0.250983
Spine  -1.3782 -0.421785 0.813308
Spine1  -2.80496 -0.869722 2.18514
HEad  -58.6317 1.12134 3.82938
LeftShoulder1  -1.94126e-019 -3.10601e-018 -2.51263e-017
LeftArm  -27.8682 28.3516 -77.7464
LeftForeArm  29.4942 -12.3727 -2.07417
LeftHand  -0.467458 -0.871402 8.79778
RightShoulder  -4.96962e-017 0 -2.36833e-017
RightArm  -37.732 -27.2574 72.2232
RightForeArm  52.0357 14.7217 1.23636
RightHand  -0.41107 -0.924978 -10.6414
LeftUpLeg  -8.89638 -4.29152 4.54715
LeftLeg  10.9048 13.1557 1.65073
LeftFoot  5.60334 -0.0440529 1.38712
LeftToes  -25.2652 1.31378e-006 1.14341e-007
613
root  48.1567 34.8053 42.2623 6.10448 60.7556 -0.986633
RightUpLeg  -8.8123 -9.17389 -3.80101
RightLeg  7.89602 3.14729 0.232929
RightFoot  6.45432 -0.0156049 0.461142
RightToes  -29.8311 -0.14276 -0.250791
Spine  -1.3499 -0.314691 0.867194
Spine1  -2.75786 -0.668268 2.27322
HEad  -59.2579 0.692648 3.99637
LeftShoulder1  -1.94126e-019 -3.10601e-018 -2.51263e-017
LeftArm  -27.6692 27.5359 -77.9728
LeftForeArm  28.9011 -13.1111 -2.16137
LeftHand  -0.473644 -0.871041 8.9131
RightShoulder  -4.96962e-017 0 -2.36833e-017
RightArm  -37.6713 -26.9356 72.1186
RightForeArm  51.8266 14.5708 1.25651
RightHand  -0.398431 -1.21772 -11.004
LeftUpLeg  -8.60939 -2.51143 4.72933
LeftLeg  10.0832 11.1705 1.24373
LeftFoot  5.81143 -0.0324465 1.21881
LeftToes  -27.3344 1.31378e-006 1.14341e-007
614
root  48.2462 34.8151 42.3468 6.14064 60.7829 -1.17436
RightUpLeg  -8.49018 -8.27716 -3.66906
RightLeg  7.26957 2.21061 0.139666
RightFoot  6.66751 -0.00777102 0.364162
RightToes  -29.5258 -0.142408 -0.250431
Spine  -1.33864 -0.290046 0.937067
Spine1  -2.74072 -0.616601 2.39806
HEad  -60.0883 0.73582 4.4559
LeftShoulder1  -1.94126e-019 -3.10601e-018 -2.51263e-017
LeftArm  -27.1607 26.8927 -78.1607
LeftForeArm  28.8421 -14.1046 -2.33171
LeftHand  -0.485152 -0.926472 9.05112
RightShoulder  -4.96962e-017 0 -2.36833e-017
RightArm  -37.1823 -26.4765 71.8181
RightForeArm  52.0057 14.3458 1.27763
RightHand  -0.390606 -1.25221 -10.8718
LeftUpLeg  -8.39898 -3.16143 4.89274
LeftLeg  9.70893 12.0864 1.26512
LeftFoot  5.97805 -0.0403057 1.3497
LeftToes  -25.9054 1.31378e-006 1.14341e-007
615
root  48.342 34.8217 42.4268 6.15677 60.5416 -1.30495
RightUpLeg  -8.17621 -7.75488 -3.5717
RightLeg  6.68878 1.87084 0.099332
RightFoot  6.88494 -0.00441628 0.332368
RightToes  -29.5196 -0.141943 -0.249955
Spine  -1.30066 -0.219664 0.996197
Spine1  -2.66839 -0.466965 2.50638
HEad  -60.8727 0.932872 4.95665
LeftShoulder1  -1.94126e-019 -3.10601e-018 -2.51263e-017
LeftArm  -26.1098 26.2097 -78.2742
LeftForeArm  28.7873 -14.514 -2.40439
LeftHand  -0.481635 -0.798457 9.16174
RightShoulder  -4.96962e-017 0 -2.36833e-017
RightArm  -36.0993 -25.9431 71.4772
RightForeArm  51.9725 14.2302 1.29121
RightHand  -0.384032 -1.35391 -10.945
LeftUpLeg  -7.93417 -3.80809 4.96019
LeftLeg  9.05226 13.0117 1.21128
LeftFoot  6.11949 -0.0485709 1.48373
LeftToes  -25.6231 1.31378e-006 1.14341e-007
616
root  48.4264 34.8205 42.4988 6.15485 60.3069 -1.42349
RightUpLeg  -7.92092 -7.64911 -3.48207
RightLeg  6.25073 1.96741 0.0893108
RightFoot  6.91064 -0.00405784 0.344392
RightToes  -29.2664 -0.141381 -0.249378
Spine  -1.3038 -0.204445 1.05249
Spine1  -2.67878 -0.422005 2.60513
HEad  -61.1261 1.1205 5.17656
LeftShoulder1  -1.94126e-019 -3.10601e-018 -2.51263e-017
LeftArm  -25.419 25.7686 -78.3882
LeftForeArm  28.9899 -14.879 -2.46531
LeftHand  -0.471841 -0.785741 8.99521
RightShoulder  -4.96962e-017 0 -2.36833e-017
RightArm  -35.6148 -25.4929 71.2973
RightForeArm  52.2927 14.2954 1.27806
RightHand  -0.394887 -1.26438 -11.0235
LeftUpLeg  -7.52515 -3.86849 5.01024
LeftLeg  8.48741 13.3883 1.11404
LeftFoot  6.16184 -0.0517596 1.53587
LeftToes  -25.2232 1.31378e-006 1.14341e-007
617
root  48.5013 34.8217 42.5528 6.14441 59.9296 -1.48456
RightUpLeg  -7.80986 -7.53769 -3.45875
RightLeg  6.11061 2.24687 0.0963365
RightFoot  6.84953 -0.00499886 0.375808
RightToes  -29.3202 -0.140736 -0.248714
Spine  -1.29678 -0.1837 1.11047
Spine1  -2.66742 -0.363192 2.71216
HEad  -61.2612 1.22813 5.03688
LeftShoulder1  -1.94126e-019 -3.10601e-018 -2.51263e-017
LeftArm  -24.8176 25.5414 -78.5659
LeftForeArm  29.1844 -15.3243 -2.53074
LeftHand  -0.473845 -0.874485 8.91222
RightShoulder  -4.96962e-017 0 -2.36833e-017
RightArm  -34.9012 -25.0696 71.145
RightForeArm  51.9451 14.5224 1.25936
RightHand  -0.397708 -1.32474 -11.2618
LeftUpLeg  -7.12728 -3.6225 5.02803
LeftLeg  8.06672 13.5117 1.02529
LeftFoot  6.18591 -0.053164 1.55751
LeftToes  -25.2593 1.31378e-006 1.14341e-007
618
root  48.5613 34.8255 42.6013 6.0201 59.3476 -1.62479
RightUpLeg  -7.95798 -8.15378 -3.36684
RightLeg  6.40502 3.40727 0.163106
RightFoot  6.70392 -0.0125231 0.501916
RightToes  -29.3583 -0.140023 -0.247979
Spine  -1.27997 -0.142695 1.1822
Spine1  -2.63545 -0.262586 2.848
HEad  -61.6302 1.85276 4.76509
LeftShoulder1  -1.94126e-019 -3.10601e-018 -2.51263e-017
LeftArm  -24.6199 25.4713 -78.8115
LeftForeArm  29.2118 -15.7459 -2.59132
LeftHand  -0.483476 -0.947665 8.99187
RightShoulder  -4.96962e-017 0 -2.36833e-017
RightArm  -34.7036 -24.6373 71.1139
RightForeArm  51.577 14.8024 1.238
RightHand  -0.396577 -1.28781 -11.1321
LeftUpLeg  -6.72965 -2.74033 5.09465
LeftLeg  7.72701 12.854 0.900284
LeftFoot  6.10486 -0.0475049 1.46678
LeftToes  -27.1844 1.31378e-006 1.14341e-007
